<svg id="Layer_1" data-name="Layer 1" xmlns="http://www.w3.org/2000/svg" viewBox="0 0 512 269.25">
  <defs>
    <style>
      .cls-1 {
        fill: #afb6c7;
      }

      .cls-2 {
        fill: #707287;
      }

      .cls-3 {
        fill: #c7cfe2;
      }

      .cls-4 {
        opacity: 0.1;
        isolation: isolate;
      }

      .cls-5 {
        fill: #5b5d6e;
      }

      .cls-6 {
        fill: #2a2a33;
      }

      .cls-7 {
        fill: #ff6465;
      }
    </style>
  </defs>
  <title>drone</title>
  <rect class="cls-1" x="238.63" y="70.27" width="34.74" height="95.69"/>
  <path class="cls-2" d="M256,123h0a34.93,34.93,0,0,0-34.93,34.93v33.75h69.86V157.89A34.93,34.93,0,0,0,256,123Z" transform="translate(0 -121.37)"/>
  <g>
    <path class="cls-3" d="M88.44,137.13c0,8.7-28,15.75-62.54,15.75s-34.53-31.51,0-31.51S88.44,128.43,88.44,137.13Z" transform="translate(0 -121.37)"/>
    <path class="cls-3" d="M88.44,137.13c0,8.7,28,15.75,62.54,15.75s34.54-31.51,0-31.51S88.44,128.43,88.44,137.13Z" transform="translate(0 -121.37)"/>
    <path class="cls-3" d="M423.56,137.13c0,8.7,28,15.75,62.54,15.75s34.54-31.51,0-31.51S423.56,128.43,423.56,137.13Z" transform="translate(0 -121.37)"/>
    <path class="cls-3" d="M423.56,137.13c0,8.7-28,15.75-62.54,15.75s-34.54-31.51,0-31.51S423.56,128.43,423.56,137.13Z" transform="translate(0 -121.37)"/>
  </g>
  <path class="cls-4" d="M42.19,152.34c26.64-1.8,46.25-7.93,46.25-15.21,0-6.75-16.86-12.51-40.55-14.75C43.8,131.5,42.12,141.92,42.19,152.34Z" transform="translate(0 -121.37)"/>
  <path class="cls-4" d="M129,122.38c-23.69,2.24-40.55,8-40.55,14.75,0,7.28,19.61,13.41,46.25,15.21C134.76,141.92,133.08,131.5,129,122.38Z" transform="translate(0 -121.37)"/>
  <path class="cls-4" d="M469.81,152.34c-26.64-1.8-46.25-7.93-46.25-15.21,0-6.75,16.86-12.51,40.55-14.75C468.2,131.5,469.88,141.92,469.81,152.34Z" transform="translate(0 -121.37)"/>
  <path class="cls-4" d="M383,122.38c23.69,2.24,40.55,8,40.55,14.75,0,7.28-19.61,13.41-46.25,15.21C377.24,141.92,378.92,131.5,383,122.38Z" transform="translate(0 -121.37)"/>
  <g>
    <path class="cls-2" d="M103.11,177.45c8.93-23.22,6.13-55.37-14.67-55.37s-23.6,32.15-14.67,55.37Z" transform="translate(0 -121.37)"/>
    <path class="cls-2" d="M408.89,177.45c-8.93-23.22-6.13-55.37,14.67-55.37s23.6,32.15,14.67,55.37Z" transform="translate(0 -121.37)"/>
  </g>
  <g>
    <rect class="cls-1" x="62.51" y="269.07" width="176.9" height="37.56" transform="translate(-161.54 255.86) rotate(-78.29)"/>
    <rect class="cls-1" x="342.27" y="199.4" width="37.56" height="176.9" transform="translate(-50.92 -42.09) rotate(-11.71)"/>
  </g>
  <polygon class="cls-4" points="361.48 76.05 324.7 83.68 333.16 124.5 371.52 124.5 361.48 76.05"/>
  <rect class="cls-4" x="238.63" y="70.27" width="34.74" height="54.24"/>
  <polygon class="cls-4" points="140.48 124.5 178.84 124.5 187.3 83.68 150.52 76.05 140.48 124.5"/>
  <path class="cls-4" d="M290.93,157.89a34.83,34.83,0,0,0-6.64-20.49H227.72a34.77,34.77,0,0,0-6.65,20.49v33.75h69.86V157.89Z" transform="translate(0 -121.37)"/>
  <path class="cls-3" d="M391,187.54h-.17c-22.09,0-41.18-7.32-50.27-17.93a15.78,15.78,0,0,0-12-5.38h-145a15.8,15.8,0,0,0-12,5.38c-9.08,10.62-28.18,17.93-50.27,17.93H121a15.64,15.64,0,0,0-15.78,15.59v.16A15.76,15.76,0,0,0,121,219.05H391a15.76,15.76,0,0,0,15.75-15.76v-.16A15.64,15.64,0,0,0,391,187.54Z" transform="translate(0 -121.37)"/>
  <path class="cls-1" d="M92.43,160.37h-8A23.09,23.09,0,0,0,61.6,186.79l4,27.33a23.09,23.09,0,0,0,45.7,0l4-27.33A23.09,23.09,0,0,0,92.43,160.37Z" transform="translate(0 -121.37)"/>
  <rect class="cls-5" x="207.71" y="142.46" width="96.58" height="96.58"/>
  <circle class="cls-6" cx="256" cy="190.75" r="24.79"/>
  <circle class="cls-7" cx="256" cy="190.75" r="7.41"/>
  <path class="cls-3" d="M110.7,355l-1,4.63a25.79,25.79,0,0,0,50.51,10.47l1-4.63Z" transform="translate(0 -121.37)"/>
  <path class="cls-1" d="M419.57,160.37h8a23.09,23.09,0,0,1,22.85,26.42l-4,27.33a23.09,23.09,0,0,1-45.7,0l-4-27.33A23.09,23.09,0,0,1,419.57,160.37Z" transform="translate(0 -121.37)"/>
  <path class="cls-3" d="M401.3,355l1,4.63a25.79,25.79,0,1,1-50.51,10.47l-1-4.63Z" transform="translate(0 -121.37)"/>
</svg>
