<svg id="Layer_1" data-name="Layer 1" xmlns="http://www.w3.org/2000/svg" viewBox="0 0 512 512">
  <defs>
    <style>
      .cls-1 {
        fill: #acaab1;
      }

      .cls-2 {
        opacity: 0.46;
      }

      .cls-3 {
        fill: #3e3b43;
      }

      .cls-4 {
        fill: #57545c;
      }

      .cls-5 {
        fill: #2f2d30;
      }

      .cls-6 {
        opacity: 0.16;
      }
    </style>
  </defs>
  <title>video</title>
  <polygon class="cls-1" points="332.13 395.51 353.01 335.4 312.75 328.97 312.75 328.97 213.48 322.43 209.77 362.33 245.55 365.66 196.27 507.55 290.18 516.28 315.38 443.74 332.13 395.51"/>
  <g class="cls-2">
    <polygon class="cls-3" points="211.05 342.31 345.67 354.82 352.43 335.35 312.17 328.92 212.91 322.38 211.05 342.31"/>
  </g>
  <polygon class="cls-3" points="425.34 78.41 491.48 84.56 530.09 24.38 358.2 8.4 425.34 78.41"/>
  <path class="cls-1" d="M415.39,185.44l-11,118.34a41,41,0,0,1-44.56,37L204.64,326.34a41,41,0,0,1-37-44.56L190.7,34A41,41,0,0,1,235.26-3L301,3.08l89.43,8.32a40.93,40.93,0,0,1,37,44.56l-4.84,52.09Z"/>
  <rect class="cls-4" x="103.36" y="133.9" width="111.61" height="40.55" transform="translate(-9.08 298.38) rotate(-84.69)"/>
  <rect class="cls-3" x="38.81" y="119.54" width="140.63" height="59.97" transform="matrix(0.09, -1, 1, 0.09, -49.86, 244.34)"/>
  <path class="cls-1" d="M7.46,223.44,22.83,58.13a8.94,8.94,0,0,1,14.65-6L84.4,91.55,74.14,202l-53.39,30.1A8.94,8.94,0,0,1,7.46,223.44Z"/>
  <g>
    <circle class="cls-3" cx="297.55" cy="168.75" r="79.03"/>
    <path class="cls-3" d="M380.93,10.51l-5.11,55a7.83,7.83,0,1,1-15.6-1.45l5.11-55Z"/>
    <path class="cls-3" d="M353.38,8l-5.12,55a7.83,7.83,0,1,1-15.6-1.45l5.11-55Z"/>
  </g>
  <g>
    <path class="cls-1" d="M264.83,165.71l65.44,6.08a32.86,32.86,0,1,1-65.44-6.08Z"/>
    <rect class="cls-1" x="281.06" y="136.48" width="35.59" height="29.25" transform="translate(120.73 434.69) rotate(-84.69)"/>
  </g>
  <g>
    <path class="cls-5" d="M104.93,106a7.84,7.84,0,0,1,8.52-7.08l26.36,2.45a7.84,7.84,0,0,1-1.45,15.61L112,114.48A7.84,7.84,0,0,1,104.93,106Z"/>
    <path class="cls-5" d="M102.22,135.08a7.84,7.84,0,0,1,8.53-7.08l26.35,2.45a7.83,7.83,0,1,1-1.45,15.6L109.3,143.6A7.84,7.84,0,0,1,102.22,135.08Z"/>
    <path class="cls-5" d="M99.66,162.66a7.83,7.83,0,0,1,8.52-7.08L134.53,158a7.83,7.83,0,1,1-1.45,15.6l-26.35-2.45A7.83,7.83,0,0,1,99.66,162.66Z"/>
  </g>
  <g class="cls-6">
    <path class="cls-3" d="M170.11,244.86l-3.43,36.82a41,41,0,0,0,37,44.57l155.17,14.42a41,41,0,0,0,44.57-37l3.42-36.82a40.94,40.94,0,0,1-44.56,37L207.09,289.42A40.93,40.93,0,0,1,170.11,244.86Z"/>
    <path class="cls-3" d="M9.91,186.53,6.48,223.35A8.94,8.94,0,0,0,19.77,232l53.39-30.11-1.38,14.82,59.71,5.55,1.35-14.44,40.37,3.75,3.42-36.82L136.26,171l-1.34,14.45-59.71-5.55L76.58,165,23.2,195.14A8.94,8.94,0,0,1,9.91,186.53Z"/>
  </g>
</svg>
